<mxfile host="Electron" agent="Mozilla/5.0 (Windows NT 10.0; Win64; x64) AppleWebKit/537.36 (KHTML, like Gecko) draw.io/28.1.2 Chrome/138.0.7204.243 Electron/37.4.0 Safari/537.36" version="28.1.2">
  <diagram name="Página-1" id="P4wrzVmgDw_qRywyDdET">
    <mxGraphModel dx="1426" dy="841" grid="1" gridSize="10" guides="1" tooltips="1" connect="1" arrows="1" fold="1" page="1" pageScale="1" pageWidth="4681" pageHeight="3300" math="0" shadow="0">
      <root>
        <mxCell id="0" />
        <mxCell id="1" parent="0" />
        <mxCell id="PrXIxHmHJweqQO3puneZ-4" value="" style="edgeStyle=orthogonalEdgeStyle;rounded=0;orthogonalLoop=1;jettySize=auto;html=1;" edge="1" parent="1" source="PrXIxHmHJweqQO3puneZ-1" target="PrXIxHmHJweqQO3puneZ-3">
          <mxGeometry relative="1" as="geometry" />
        </mxCell>
        <mxCell id="PrXIxHmHJweqQO3puneZ-1" value="Artigo" style="rounded=1;arcSize=10;whiteSpace=wrap;html=1;align=center;" vertex="1" parent="1">
          <mxGeometry x="230" y="200" width="100" height="40" as="geometry" />
        </mxCell>
        <mxCell id="PrXIxHmHJweqQO3puneZ-2" value="Revista&amp;nbsp;" style="rounded=1;arcSize=10;whiteSpace=wrap;html=1;align=center;" vertex="1" parent="1">
          <mxGeometry x="600" y="200" width="100" height="40" as="geometry" />
        </mxCell>
        <mxCell id="PrXIxHmHJweqQO3puneZ-5" style="edgeStyle=orthogonalEdgeStyle;rounded=0;orthogonalLoop=1;jettySize=auto;html=1;entryX=0;entryY=0.5;entryDx=0;entryDy=0;" edge="1" parent="1" source="PrXIxHmHJweqQO3puneZ-3" target="PrXIxHmHJweqQO3puneZ-2">
          <mxGeometry relative="1" as="geometry" />
        </mxCell>
        <mxCell id="PrXIxHmHJweqQO3puneZ-3" value="é armazenado&amp;nbsp;" style="rhombus;whiteSpace=wrap;html=1;rounded=1;arcSize=10;" vertex="1" parent="1">
          <mxGeometry x="410" y="170" width="110" height="100" as="geometry" />
        </mxCell>
        <mxCell id="PrXIxHmHJweqQO3puneZ-9" style="edgeStyle=orthogonalEdgeStyle;rounded=0;orthogonalLoop=1;jettySize=auto;html=1;" edge="1" parent="1" source="PrXIxHmHJweqQO3puneZ-8" target="PrXIxHmHJweqQO3puneZ-1">
          <mxGeometry relative="1" as="geometry" />
        </mxCell>
        <mxCell id="PrXIxHmHJweqQO3puneZ-8" value="ID_Artigo" style="ellipse;whiteSpace=wrap;html=1;align=center;fontStyle=4" vertex="1" parent="1">
          <mxGeometry x="230" y="100" width="100" height="40" as="geometry" />
        </mxCell>
        <mxCell id="PrXIxHmHJweqQO3puneZ-11" style="edgeStyle=orthogonalEdgeStyle;rounded=0;orthogonalLoop=1;jettySize=auto;html=1;" edge="1" parent="1" source="PrXIxHmHJweqQO3puneZ-10" target="PrXIxHmHJweqQO3puneZ-1">
          <mxGeometry relative="1" as="geometry" />
        </mxCell>
        <mxCell id="PrXIxHmHJweqQO3puneZ-10" value="N_Autores" style="ellipse;whiteSpace=wrap;html=1;align=center;" vertex="1" parent="1">
          <mxGeometry x="90" y="200" width="100" height="40" as="geometry" />
        </mxCell>
        <mxCell id="PrXIxHmHJweqQO3puneZ-14" style="edgeStyle=orthogonalEdgeStyle;rounded=0;orthogonalLoop=1;jettySize=auto;html=1;exitX=1;exitY=1;exitDx=0;exitDy=0;entryX=0.25;entryY=0;entryDx=0;entryDy=0;" edge="1" parent="1" source="PrXIxHmHJweqQO3puneZ-12" target="PrXIxHmHJweqQO3puneZ-1">
          <mxGeometry relative="1" as="geometry" />
        </mxCell>
        <mxCell id="PrXIxHmHJweqQO3puneZ-12" value="Data_Publi" style="ellipse;whiteSpace=wrap;html=1;align=center;" vertex="1" parent="1">
          <mxGeometry x="90" y="110" width="100" height="40" as="geometry" />
        </mxCell>
        <mxCell id="PrXIxHmHJweqQO3puneZ-15" value="Tipo" style="ellipse;whiteSpace=wrap;html=1;align=center;" vertex="1" parent="1">
          <mxGeometry x="90" y="260" width="100" height="40" as="geometry" />
        </mxCell>
        <mxCell id="PrXIxHmHJweqQO3puneZ-16" style="edgeStyle=orthogonalEdgeStyle;rounded=0;orthogonalLoop=1;jettySize=auto;html=1;exitX=1;exitY=0;exitDx=0;exitDy=0;entryX=0.32;entryY=0.975;entryDx=0;entryDy=0;entryPerimeter=0;" edge="1" parent="1" source="PrXIxHmHJweqQO3puneZ-15" target="PrXIxHmHJweqQO3puneZ-1">
          <mxGeometry relative="1" as="geometry" />
        </mxCell>
        <mxCell id="PrXIxHmHJweqQO3puneZ-18" style="edgeStyle=orthogonalEdgeStyle;rounded=0;orthogonalLoop=1;jettySize=auto;html=1;entryX=0.5;entryY=0;entryDx=0;entryDy=0;" edge="1" parent="1" source="PrXIxHmHJweqQO3puneZ-17" target="PrXIxHmHJweqQO3puneZ-2">
          <mxGeometry relative="1" as="geometry" />
        </mxCell>
        <mxCell id="PrXIxHmHJweqQO3puneZ-17" value="Tipo" style="ellipse;whiteSpace=wrap;html=1;align=center;fontStyle=4" vertex="1" parent="1">
          <mxGeometry x="600" y="100" width="100" height="40" as="geometry" />
        </mxCell>
      </root>
    </mxGraphModel>
  </diagram>
</mxfile>
